<?xml version="1.0" encoding="UTF-8"?><svg id="Layer_2" xmlns="http://www.w3.org/2000/svg" viewBox="0 0 33.66 33.66"><g id="Layer_1-2"><rect width="33.66" height="33.66" style="fill:#0076bd;"/><polyline points="26.45 11.63 23.15 11.72 23.07 8.42 22.24 8.44 22.33 11.74 19.02 11.83 19.04 12.65 22.35 12.57 22.43 15.87 23.26 15.85 23.17 12.55 26.48 12.46 26.45 11.63" style="fill:#fff;"/><path d="M15.56,18.11c-.47-.31-1.37-1.09-1.39-1.55-.01-.55.14-.82.94-1.49.83-.68,1.4-1.62,1.37-2.7-.03-1.28-.64-2.52-1.72-2.91l1.62-.04,1.12-.86-5.11.13c-2.29.06-4.4,1.85-4.35,3.86.05,2.05,1.66,3.67,3.99,3.61.16,0,.32-.01.47-.03-.14.29-.24.62-.23.96.02.57.33,1.02.73,1.39-.29,0-.58.02-.88.03-2.84.07-4.97,1.94-4.92,3.81.05,1.84,2.47,2.93,5.31,2.86,3.23-.08,4.97-1.96,4.92-3.81-.04-1.48-.5-2.35-1.87-3.27M12.77,15.62c-1.32,0-2.6-1.4-2.88-3.13-.27-1.72.58-3.07,1.89-3.06,1.32,0,2.6,1.36,2.88,3.08.27,1.72-.57,3.11-1.89,3.11M12.48,24.37c-1.96.05-3.41-1.15-3.45-2.64-.04-1.46,1.69-2.72,3.65-2.75.46,0,.89.06,1.28.17,1.08.71,1.86,1.11,2.09,1.95.05.17.07.35.08.52.04,1.49-.89,2.68-3.65,2.75" style="fill:#fff;"/></g></svg>