<?xml version="1.0" encoding="UTF-8"?><svg id="Layer_2" xmlns="http://www.w3.org/2000/svg" viewBox="0 0 878.25 269.7"><g id="Layer_1-2"><path d="M91.43,72.03c-1.48-.3-1.67-1.54-2.26-2.3-2.18-2.8-4.18-5.74-6.23-8.64-1.14-1.61-2.22-3.24-3.36-4.85-1.69-2.38-3.41-4.74-5.12-7.12-2.53-3.53-5.18-6.98-7.57-10.6-2.91-4.4-6.27-8.48-9.06-12.96-.63-1.01-1.53-1.86-2.27-2.81-.5-.65-.48-.67-1.61-.67.23.47.43.84.58,1.23,1.12,2.86,2.52,5.61,3.63,8.48,1.08,2.79,2.6,5.41,3.86,8.14,1.65,3.56,3.23,7.15,4.9,10.7,1.87,3.97,3.6,7.99,5.42,11.98,1.43,3.14,2.89,6.28,4.2,9.49.9,2.21,2.01,4.32,3.15,6.75-.53-.09-.89-.07-1.17-.21-3.2-1.51-6.34-3.19-9.61-4.54-3.21-1.32-6.35-2.77-9.5-4.19-3.79-1.71-7.53-3.53-11.35-5.18-3.32-1.43-6.62-2.92-9.91-4.43-3.64-1.67-7.3-3.3-10.94-4.95-1.26-.57-2.5-1.21-3.77-1.74-.41-.17-.9-.12-1.82-.23,1.87,1.39,3.29,2.49,4.76,3.55,2.18,1.57,4.38,3.1,6.56,4.65,2.25,1.61,4.51,3.21,6.74,4.84,2.75,2.02,5.41,4.17,8.23,6.07,3.33,2.25,6.51,4.7,9.81,7,2.27,1.58,4.55,3.23,6.72,4.99,2.5,2.02,5.28,3.69,7.93,5.53.14.1.12.43.17.63-.19.1-.33.22-.47.23-2.85.18-5.7.3-8.54.53-1.1.09-2.13.61-3.3.5-1.11-.1-2.27-.22-3.29.47-.06.04-.16,0-.25,0-2.76.17-5.53.3-8.29.51-1.19.09-2.36.34-3.54.48-1.1.13-2.28-.28-3.3.49-.16.12-.49,0-.74.02-2.76.16-5.53.29-8.29.52-1.1.09-2.13.61-3.3.5-1.11-.1-2.27-.22-3.3.46-.12.08-.33,0-.49.01-2.76.16-5.56.12-8.28.57-1.94.32-3.86.41-5.8.43-.89,0-1.33.42-1.34,1.24.14.14.2.26.25.26,2.96-.37,5.83.78,8.79.51,1.71.7,3.59.17,5.27.59,1.55.38,3.09.11,4.55.46,1.94.47,3.91.16,5.79.53,1.62.32,3.25.14,4.79.49,1.78.4,3.59.12,5.29.51,1.54.36,3.09.14,4.55.48,1.86.43,3.77.1,5.53.53,1.63.4,3.21.27,4.81.42,1.19.11,2.36.35,3.54.48,1.11.12,2.28-.27,3.3.49.16.12.49.03.74.01,1.95-.15,3.85.13,5.85.73-2.36,1.66-4.66,3.28-6.95,4.89-2.26,1.59-4.56,3.12-6.76,4.78-3.6,2.71-7.45,5.08-10.99,7.89-2.2,1.74-4.82,2.96-7.01,4.71-3.16,2.53-6.67,4.57-9.82,7.12-2.19,1.77-4.65,3.22-6.98,4.83-.98.67-1.93,1.38-2.87,2.1-.15.11-.14.42-.28.93.68-.14,1.21-.15,1.66-.36,2.67-1.2,5.3-2.48,7.97-3.67,3.87-1.72,7.7-3.52,11.56-5.26,3.15-1.42,6.34-2.78,9.49-4.23,3.78-1.74,7.56-3.47,11.35-5.17,3.3-1.49,6.61-2.94,9.91-4.42,1.26-.57,2.5-1.2,3.77-1.75.93-.4,1.47-.17,2.38.87-11.59,15.14-22.31,30.86-31.52,47.59-9.05,16.43-16.86,33.4-23.1,51.23-1.12,0-2.34-.26-3.4.05-2.68.78-5.37.33-8.05.43-2.27.09-4.52-.43-6.78-.61-1.92-.15-3.79-1.2-4.84-3.28-.81-1.61-1.47-3.14-1.29-4.97.06-.61.25-1.3-.41-1.84-.17-.14-.2-.77-.05-.93.82-.85.46-1.88.46-2.81.02-41.35.02-82.69.02-124.04-.98-10.82-.38-21.66-.48-32.49-.1-10.9-.01-21.8-.03-32.69,0-2.2.85-4.32.51-6.53.69-1.3.94-2.76,2.1-3.9,1.15-1.14,2.55-1.72,3.94-1.97C8.58.27,10.59,0,12.64,0c64.13.05,128.26.03,192.38.08,2.81,0,5.62.39,8.2,1.9,2.09,1.22,3.21,2.91,3.76,5.17.29,1.17.63,2.32.48,3.54-.16,1.35-.13,2.76-.58,4.01-.23.63-.48,1.49-1.57,1.91-1.93.74-3.81,1.64-5.75,2.4-.21.09-.42.19-.63.29-2.65,1.23-5.28,2.54-7.96,3.69-4.25,1.83-8.44,3.8-12.47,6.06-2.91,1.63-6.01,2.89-8.75,4.86-1.49,1.07-3.34,1.62-4.9,2.6-3.1,1.96-6.3,3.73-9.41,5.67-4.84,3.02-9.68,6.04-14.36,9.3-2.79,1.94-5.66,3.76-8.3,5.92-1.34,1.1-2.82,2.03-4.23,3.05-1.03.74-2.06,1.48-3.05,2.27-1.88,1.51-3.66,3.16-5.62,4.55-2.34,1.67-4.39,3.7-6.76,5.36-1.59,1.11-2.94,2.56-4.42,3.84-.26.23-.62.35-1.26.7.43-1.53.63-2.73,1.1-3.83,1.19-2.83,2.59-5.59,3.74-8.44,1.45-3.58,3.4-6.91,4.94-10.44.99-2.27,2.07-4.47,3.19-6.67.83-1.64,1.52-3.37,2.08-5.12.55-1.7,1.96-3.02,2.03-4.9,1.41-2.06,2.11-4.45,3.15-6.68,1.51-3.26,2.95-6.55,4.11-10.08-.3.3-.62.59-.9.91-.31.36-.58.75-.86,1.14-1.95,2.69-3.91,5.37-5.85,8.06-1.39,1.92-2.77,3.85-4.14,5.77-1.51,2.12-2.99,4.26-4.52,6.36-1.45,1.99-2.97,3.92-4.4,5.92-1.51,2.11-2.93,4.28-4.43,6.4-1.33,1.87-2.71,3.7-4.06,5.56-1.71,2.37-3.42,4.74-5.12,7.11-.88,1.22-1.75,2.45-2.62,3.67-1.04-.85-.89-2.01-.82-3.09.17-2.62-.89-5.15-.52-7.78-.88-1.43-.34-3.02-.51-4.53-.13-1.18-.32-2.36-.49-3.54-.17-1.1.42-2.3-.49-3.3-.08-.09-.03-.33,0-.49.38-2.79-.69-5.5-.51-8.28.09-1.29-.69-2.44-.54-3.79.12-1.16.39-2.45-.45-3.54-.04-.05-.02-.16,0-.25.38-2.55-.62-4.99-.52-7.53.09-2.27-.83-4.48-.48-6.78-.85-1.35-.35-2.85-.51-4.28-.13-1.18-.32-2.36-.49-3.54-.18-1.18.34-2.4-.45-3.57-.34-.5-.11-1.38-.15-2.24-.22.22-.33.28-.33.34-.19,2.83-.42,5.67-.54,8.5-.05,1.21-.74,2.27-.56,3.54.15,1.09.25,2.27-.46,3.29-.04.06,0,.16,0,.25-.17,2.76-.3,5.52-.51,8.28-.09,1.19-.34,2.37-.48,3.55-.13,1.1.3,2.28-.49,3.3-.08.1,0,.32-.01.49-.16,2.68-.12,5.39-.57,8.02-.34,1.94-.11,3.92-.52,5.78-.35,1.62-.1,3.26-.48,4.79-.41,1.69-.12,3.43-.51,5.03-.45,1.87-.06,3.78-.51,5.53-.5,1.93-.23,3.85-.52,5.97Z" style="fill:#0576bd;"/><path d="M155.61,190.6c7.9-12.47,17.23-23.81,27.18-34.79,3.23,3.4,6.64,6.73,9.7,10.35,1.43,1.69,3.09,3.15,4.46,4.87,2,2.52,4.48,4.59,6.49,7.06,1.41,1.72,3.01,3.22,4.47,4.87.8.9,1.39,2.06,2.34,2.74,1.41,1.01,2.65,2.16,3.81,3.41,1.23,1.34,1.91,2.97,2.45,4.72.39,1.28.37,2.52.47,3.8.07.94.4,1.85.46,2.79.11,1.61-.71,3.12-.52,4.79.18,1.56.24,3.19-.03,4.73-.22,1.25-.55,2.56-1.51,3.61-1.17,1.27-2.54,2.14-4.17,2.62-.82.24-1.68.41-2.54.49-.82.08-1.66.02-2.5.02-8.91,0-17.82,0-26.73,0-2,0-3.52-.62-4.74-2.42-1.48-2.19-3.46-4.04-5.04-6.17-1.56-2.11-3.42-3.98-4.83-6.22-.59-.94-1.44-1.72-2.15-2.59-2.14-2.6-4.25-5.22-6.31-7.89-.25-.33-.58-.59-.79-.79Z" style="fill:#139a52;"/><path d="M21.8,269.7c-.27-.46-.73-.86-.69-1.22.2-2.09-.44-4.2.39-6.31.44-1.12.24-2.49.5-3.77.71-3.52,1.6-6.99,2.46-10.47.99-3.99,2.23-7.9,3.43-11.82,1.17-3.83,2.22-7.73,3.74-11.43,1.53-3.7,2.82-7.49,4.25-11.21,1.27-3.29,2.89-6.48,3.68-9.96,1.77-2.58,2.45-5.64,3.8-8.42,1.91-3.94,3.68-7.96,5.47-11.96,1.61-3.59,3.31-7.13,5.22-10.56,1.77-3.18,3.15-6.6,5.44-9.49.28-.35.36-.85.57-1.25.18-.35.41-.67.74-1.18.97,1.28,1.88,2.45,2.75,3.65,1.54,2.1,3.07,4.22,4.61,6.33,2.15,2.93,4.51,5.7,6.42,8.82.99,1.62,2.31,3.04,3.47,4.56,1.54,2.02,3.06,4.06,4.6,6.08,1.12,1.48,1.21,2.98.42,4.67-1.77,3.76-3.53,7.52-5.12,11.36-1,2.41-2.28,4.7-2.93,7.28-.48,1.88-2.7,3.29-4.77,3.3-6.41.02-12.83.05-19.24-.02-1.59-.02-3.15-.57-4.79-.5-2.96.13-5.3,1.69-6.09,4.54-.19.7-.53,1.29-.79,1.93-.87,2.13-1.85,4.23-2.76,6.34-.88,2.05-1.83,4.06-2.53,6.19-.62,1.89-1.54,3.69-2.27,5.55-1.09,2.79-2.16,5.6-3.19,8.41-.55,1.52-1,3.08-1.51,4.62-.54,1.61-1.11,3.2-1.67,4.8-.53,1.53-1.09,3.05-1.58,4.59-.68,2.13-1.31,4.28-2.01,6.57Z" style="fill:#139a52;"/><path d="M176.91,149.62c-.41.58-.77,1.21-1.25,1.73-1.98,2.18-4.14,4.22-5.95,6.53-1.77,2.26-3.87,4.25-5.37,6.73-.7,1.16-1.77,2.08-2.61,3.17-1.94,2.51-3.84,5.05-5.74,7.6-1.51,2.03-3.01,4.07-4.5,6.12-.42.57-.79,1.18-1.25,1.86-2.41-2.81-4.82-5.49-6.89-8.46-.73-1.05-1.63-1.99-2.46-2.98-1.82-2.16-3.7-4.27-5.46-6.47-2.29-2.86-4.45-5.81-6.73-8.68-1.65-2.08-3.43-4.06-5.09-6.13-.63-.78-1.33-1.66-1.52-2.59-.14-.71.31-1.71.8-2.34,1.68-2.16,3.57-4.16,5.24-6.33,1.68-2.18,3.56-4.17,5.27-6.3,4.39-5.45,9.41-10.28,14.32-15.23,3.07,3.24,6.3,6.32,9.13,9.73,1.79,2.16,3.96,3.94,5.67,6.12,1.94,2.47,4.41,4.43,6.33,6.86,1.74,2.21,3.85,4.03,5.7,6.11.8.9,1.49,1.89,2.33,2.95Z" style="fill:#139a52;"/><path d="M116.45,155.1c2.32,2.96,4.54,5.8,6.78,8.64.75.94,1.51,1.88,2.29,2.79,1.97,2.31,3.89,4.66,5.66,7.12.89,1.24,2,2.33,2.98,3.51,2.36,2.84,4.73,5.68,7.05,8.55.94,1.17,1.71,2.47,2.67,3.62.87,1.03.89,1.99.2,3.07-.38.59-.69,1.22-1.09,1.79-3.57,5.09-6.33,10.62-9.05,16.19-.77,1.58-1.74,3.13-2.87,4.57-.97,1.23-2.35,1.24-3.57,1.69-.73.27-1.65-.02-2.47.07-.77.08-1.52.38-2.29.46-.74.08-1.57.22-2.23-.02-1.73-.64-3.62-.41-5.3-1.05-1.29-.49-2.47-1.26-3.7-1.9-.14-.07-.32-.09-.42-.19-2.28-2.38-4.75-4.52-6.25-7.62-1.43-2.95-3.28-5.73-5.56-8.18-.59-.64-1.07-1.38-1.6-2.08-.48-.63-.88-1.33-1.42-1.9-2.14-2.22-1.45-4.64-.13-6.75,1.49-2.37,2.71-4.88,4.17-7.26,2.03-3.31,3.99-6.66,5.95-10.01,2.76-4.72,6.17-9.02,8.89-13.76.24-.42.69-.71,1.32-1.35Z" style="fill:#139a52;"/><path d="M276.4,7.14c-3.36,1.58-6.6,3.35-10.14,4.44-1.28.4-2.51,1.14-3.79,1.69-2.26.96-4.42,2.17-6.69,3.13-4.05,1.7-8,3.6-11.99,5.4-1.82.82-3.56,1.88-5.45,2.49-1.94.63-3.61,1.73-5.46,2.5-2.64,1.1-5.21,2.29-7.72,3.66-1.38.75-2.75,1.46-3.97,2.5-.94.8-2.06,1.42-3.15,2.01-1.05.57-1.65,1.18-1.1,2.47.18.42.03.99.03,1.48,0,5.74-.02,11.47.01,17.21.01,2.07-.87,3.42-2.74,4.34-3.95,1.93-7.89,3.88-11.74,6-3.05,1.68-6.17,3.27-9.08,5.22-2.38,1.59-4.95,2.88-7.6,4.39-1.07-1.46-2.77-2.28-3.48-4.04-.09-.21-.35-.35-.52-.53-2.12-2.28-4.29-4.52-6.34-6.86-2.96-3.37-5.84-6.81-9-10-.47-.48-.72-1.18-1.17-1.95,2.73-1.65,5.48-3.11,8.01-4.89,2.57-1.8,5.38-3.13,8.01-4.82,2.6-1.67,5.45-2.93,8.13-4.48,2.66-1.53,5.58-2.61,8.28-4.09,2.71-1.49,5.59-2.6,8.34-3.98,2.76-1.39,5.61-2.54,8.44-3.74,2.9-1.24,5.78-2.52,8.71-3.68,2.86-1.13,5.77-2.13,8.67-3.19,2.89-1.06,5.76-2.18,8.68-3.15,2.93-.97,5.93-1.75,8.88-2.67,2.95-.92,5.91-1.82,8.89-2.65,2.99-.84,6.01-1.56,9.02-2.31,2.99-.74,5.95-1.63,9.05-1.91Z" style="fill:#139a52;"/><path d="M182.96,143.52c-1.31-1.49-2.49-2.81-3.65-4.14-1.17-1.34-2.77-2.31-3.54-4.02-.06-.14-.23-.24-.35-.36-2.59-2.75-5.18-5.5-7.77-8.26-2.53-2.69-5.25-5.24-7.53-8.12-1.89-2.39-4.21-4.33-6.19-6.64,9.62-9.36,20.1-17.55,31.28-25.1.56.56,1.09,1.16,1.68,1.67,5.15,4.42,9.6,9.57,14.67,14.04,4.66,4.11,8.76,8.75,13.49,13-2.05,1.62-4.03,3.18-6.01,4.75-.63.5-1.23,1.04-1.87,1.53-.56.43-1.19.79-1.72,1.25-1.48,1.27-2.86,2.67-4.4,3.85-2.71,2.07-5.12,4.49-7.73,6.67-3.61,3.02-6.73,6.52-10.37,9.88Z" style="fill:#139a52;"/><path d="M745.74,138.24v-12.32h132.21s.05.03.09.09c.04.06.08.14.08.21,0,3.98,0,7.96,0,12.02h-132.39Z" style="fill:#139a52;"/><path d="M250.54,125.87h132.26v12.2c-2.2.38-122.37.54-132.26.16v-12.37Z" style="fill:#139a52;"/><path d="M560.71,79.37h-11.22c-7.63-11.18-15.23-22.32-23.16-33.94v33.94h-9.93V29.16s.02-.04.08-.08c.06-.04.14-.08.21-.08,3.41,0,6.83,0,10.3,0,2.05,1.56,3.04,4,4.54,6.02,2.24,3.03,4.26,6.21,6.39,9.32,3.29,4.8,6.65,9.54,9.82,14.41.73,1.11,1.79,1.93,2.53,3.14V29.04h10.43v50.32Z" style="fill:#139a52;"/><path d="M642.33,79.36h-10V29.11h10.76c1.93,1.45,2.88,3.91,4.4,5.93,2.26,3.01,4.28,6.2,6.39,9.32,3.29,4.87,6.56,9.76,9.86,14.63.69,1.02,1.49,1.97,2.41,3.17V29.08c3.53-.18,6.98-.03,10.5-.1v50.32h-11.28c-7.59-11.12-15.18-22.25-23.05-33.77v33.84Z" style="fill:#139a52;"/><path d="M88.72,120.84c7.12,8.82,14.17,17.55,21.28,26.35.22,1.42-.39,2.59-1.37,3.81-1.68,2.08-3.23,4.28-4.59,6.58-2.65,4.48-5.49,8.85-8.1,13.35-2.18,3.76-4.36,7.51-6.43,11.33-.21.39-.54.73-.97,1.3-1.06-1.26-2.18-2.24-2.86-3.46-1.32-2.36-3.14-4.34-4.66-6.54-2.31-3.32-4.83-6.48-7.21-9.76-2.45-3.38-4.81-6.84-7.28-10.21-.5-.69-.53-1.11-.21-1.92.71-1.77,1.97-3.17,2.91-4.78,1.46-2.5,3.12-4.89,4.8-7.25,1.56-2.2,3.34-4.26,4.86-6.49,1.79-2.62,3.98-4.93,5.72-7.6,1.13-1.74,2.72-3.17,4.09-4.72Z" style="fill:#139a52;"/><path d="M481.97,80.41c-1,0-2-.05-3,.01-1.42.09-5.81-1.05-7.73-1.84-4.55-1.85-8.26-4.85-11.44-8.5-1.12-1.28-1.95-2.83-2.84-4.3-.97-1.59-1.35-3.43-2.07-5.13-.57-1.35-.88-9.05-.52-10.24,1.03-3.47,1.79-7.07,3.98-10.07,3.15-4.32,6.91-7.97,11.94-10.04,2.08-.86,4.23-1.44,6.46-1.92,3.13-.67,6.22-.38,9.3-.3,1.78.04,3.63.68,5.39,1.36,1.74.68,3.4,1.38,5.04,2.32,2.42,1.38,4.54,3.02,6.38,5.03,2.61,2.85,4.54,6.16,5.81,9.81.41,1.17.4,2.49.65,3.72.28,1.33.57,2.65.5,4.04-.25,5.36-1.77,10.28-4.89,14.69-3.12,4.42-7.33,7.46-12.2,9.63-1.33.59-2.8.93-4.25,1.18-1.09.19-2.09.76-3.29.57-1.06-.16-2.16-.03-3.24-.03ZM499.26,54.17c.39-2.43-.37-4.67-1.35-6.87-2.12-4.8-5.95-7.62-10.75-9.32-.99-.35-1.97-.67-3.04-.5-2.29-1.38-4.49.26-6.75.21-.06,0-.11.14-.18.16-4.53,1.5-6.34,3.33-8.47,5.42-2.89,2.83-3.66,6.49-4.36,10.19-.2,1.08.3,2.23.37,3.29.13,2.05,1.04,3.81,1.82,5.52,1.15,2.53,3.36,4.42,5.56,6.12,1.19.92,2.72,1.43,4.14,2.03,1.37.58,2.9.58,4.34.96,2,.54,4.03-.23,6-.54,2.78-.44,8.17-4.21,9.69-6.66,1.87-3.03,3.5-6.2,2.97-10Z" style="fill:#139a52;"/><path d="M442.21,51.85c1.55.09,2.55.78,3.51,1.69,1.41,1.34,2.59,2.79,3.17,4.69.27.88.78,1.71.93,2.6.27,1.57.59,3.2.48,4.77-.16,2.16-.47,4.41-1.69,6.25-1.18,1.79-2.65,3.32-4.44,4.68-1.89,1.43-4.11,1.81-6.09,2.86-.45.24-1.15.04-1.73.04h-25.21c-.43-2.27-.58-36.56-.21-50.42h2.16c6.91,0,13.81-.07,20.72.03,3.49.05,6.57,1.43,9.13,3.82,1.24,1.16,2.7,2.22,3.33,3.85.53,1.37,1.14,2.76,1.09,4.29-.06,1.77.19,3.53-.46,5.29-.87,2.34-2.28,4.13-4.67,5.58ZM420.94,71.29c.14.07.21.13.28.13,4,0,8-.14,11.99.05,3.54.17,8.01-3.31,7.73-7.63-.25-3.81-3.51-7.47-7.41-7.41-3.58.06-7.16.01-10.74.01h-1.85v14.84ZM420.94,36.98v11.48c2.89,0,5.7,0,8.51,0,1.44,0,3.45-.73,5.14-1.43,2.23-.93,2.54-2.95,2.66-4.82.07-1.08-.32-2.58-1.34-3.35-1.22-.93-2.49-1.9-4.19-1.88-3.56.03-7.12,0-10.78,0Z" style="fill:#139a52;"/><path d="M816.92,61.47h-10.21v-7.92h21.79c.52,3.12.08,6.25-1.01,9.28-.99,2.74-2.6,5.1-4.31,7.47-1.52,2.1-3.45,3.64-5.4,5.13-1.62,1.24-3.48,2.24-5.45,3.06-1.95.81-4.05,1.01-5.95,1.9-.34.16-.82.02-1.24.02-2,0-4-.03-5.99,0-3.3.06-6.33-.98-9.36-2.11-1.32-.49-2.48-1.26-3.69-1.93-1.17-.65-2.18-1.62-3.21-2.5-3.65-3.11-5.42-5.43-7.37-9.88-.65-1.48-1.03-3.07-1.42-4.66-.65-2.62-.53-5.22-.35-7.79.26-3.75,1.45-7.27,3.54-10.49,1.33-2.06,2.88-3.88,4.63-5.56,2.87-2.76,7.61-5.39,12.26-6.59,3.55-.92,7.06-1.02,10.59-.83,2.23.12,4.52.67,6.6,1.5,2.35.93,4.69,2.15,6.68,3.69,1.91,1.48,3.89,3.05,5.18,5.4-1.41.74-2.8,1.51-4.23,2.22-1.45.72-2.92,1.4-4.29,2.05-1.58-1.13-3.13-2.23-4.68-3.33-1.44-1.03-4.4-2.09-6.11-2.1-1.21,0-2.29-.86-3.54-.51-2.76.75-5.64,1.1-8.14,2.66-.87.54-2.91,2.2-3.64,3.16-.63.83-1.39,1.52-2.02,2.38-1.45,1.99-1.95,4.19-2.48,6.49-.26,1.11-.59,2.22-.4,3.29.5,2.74.91,5.57,2.51,7.92,1.04,1.53,1.82,3.38,3.78,4.17.64.26,1.07.99,1.69,1.36,2.15,1.28,4.35,2.37,6.94,2.58.73.06,1.47.47,2.3.45,3.28-.08,6.38-.86,9.19-2.53,2.28-1.35,4.31-3.02,5.56-5.45.31-.6.72-1.15,1.25-1.99Z" style="fill:#139a52;"/><path d="M391.66,79.32c-4.23-6.6-8.5-13.24-12.73-19.83h-5.96v19.8h-10.01V28.99h2.11c7,0,13.99.06,20.99-.03,3.07-.04,5.7,1.06,8.15,2.65,2.35,1.53,4.49,4.09,5.61,6.6.53,1.19.95,2.52,1,3.81.09,2.09.21,4.19-.39,6.3-.46,1.62-1.15,3.07-2.1,4.37-2.02,2.79-4.71,4.77-8.03,5.91,4.39,6.92,8.72,13.75,13.13,20.71h-11.79ZM372.97,36.98v13.48c3.24,0,6.4-.05,9.55.03,1.16.03,2.22-.21,3.29-.54,3.58-1.09,5.97-4.86,4.59-8.41-.91-2.33-3.68-4.55-6.14-4.56-3.74-.01-7.47,0-11.29,0Z" style="fill:#139a52;"/><path d="M757.15,58.67c4.35,6.85,8.69,13.68,13.1,20.62h-11.78c-4.23-6.57-8.54-13.27-12.77-19.84h-5.93v19.89h-9.95V28.99h9.22c4.58,0,9.16.08,13.74-.03,3.06-.07,5.71,1.01,8.18,2.58,2.42,1.54,4.35,3.87,5.61,6.6.66,1.41,1.14,2.94,1.1,4.53-.05,1.85.11,3.68-.41,5.55-.45,1.62-1.14,3.07-2.05,4.4-1.96,2.87-4.76,4.7-8.07,6.04ZM739.85,50.46c3.19,0,6.42-.05,9.65.03,1.07.02,2.04-.23,3.04-.52,3.66-1.05,6.17-4.88,4.64-8.57-.98-2.34-2.82-4.12-5.26-4.33-4.03-.34-8.1-.09-12.21-.09,0,4.42,0,8.66,0,12.89,0,.15.07.3.14.59Z" style="fill:#139a52;"/><path d="M115.93,140.84c-.49-.65-.82-1.09-1.16-1.51-1.79-2.24-3.67-4.41-5.33-6.76-.73-1.03-1.64-1.97-2.45-2.98-2.61-3.23-5.28-6.42-7.76-9.76-.96-1.3-2.09-2.47-3.16-3.68-1.32-1.49-1.33-2.62.04-4.11,1.87-2.05,3.89-3.99,5.62-6.16,3.46-4.35,7.66-7.97,11.52-11.92,2.11-2.15,4.45-4.07,6.83-6.23.85.98,1.93,1.62,2.49,2.89.31.71,1.14,1.19,1.71,1.79,3.36,3.51,6.86,6.9,10.01,10.6,1.87,2.19,3.95,4.16,5.87,6.28.57.63.99,1.4,1.51,2.14-2.97,3.14-5.85,6.17-8.7,9.23-.99,1.06-1.89,2.2-2.83,3.31-.94,1.11-2.06,2.02-2.89,3.28-.92,1.4-2.28,2.5-3.33,3.86-1.87,2.43-3.98,4.68-5.96,7.03-.72.86-1.35,1.79-2.03,2.7Z" style="fill:#139a52;"/><path d="M324.71,29h11.55c.7,1.71,1.47,3.47,2.13,5.26.66,1.8,1.34,3.62,2.09,5.37,1.24,2.9,2.4,5.83,3.56,8.75,1.48,3.71,3.08,7.38,4.39,11.16.8,2.32,2.02,4.48,2.95,6.76,1.22,2.99,2.34,6.02,3.52,9.02.5,1.28,1.06,2.54,1.65,3.97h-10.89c-1.1-2.72-2.25-5.56-3.39-8.37h-23.69c-1.07,2.73-2.17,5.51-3.3,8.39h-10.96c.52-1.25,1.01-2.36,1.43-3.5,1.51-4.03,3.18-8,4.74-12.01,1.13-2.93,2.37-5.84,3.55-8.75,1.16-2.85,2.4-5.66,3.4-8.57.65-1.89,1.51-3.7,2.26-5.55.66-1.64,1.29-3.29,1.95-4.93.63-1.57,1.44-3.06,1.81-4.75.15-.72.73-1.34,1.26-2.25ZM330.68,42.45c-.17-.02-.34-.03-.51-.05-2.57,6.31-5.15,12.62-7.77,19.05,2.87,0,5.52.03,8.17,0,2.6-.04,5.21.16,7.81-.11-2.61-6.39-5.16-12.63-7.71-18.88Z" style="fill:#139a52;"/><path d="M148.09,105.23c-2.96-3.12-6.21-6.28-9.11-9.73-1.43-1.7-3.09-3.15-4.46-4.88-2-2.52-4.32-4.72-6.54-7.03-.54-.56-.9-1.29-1.29-1.86,9.38-8.5,19.53-16.14,30.05-23.31,2.88,3.05,5.86,5.91,8.47,9.07,1.95,2.36,4.35,4.28,6.18,6.67,1.97,2.57,4.46,4.6,6.6,7.06-5.04,3.85-10.18,7.62-15.15,11.6-4.99,4-9.81,8.22-14.76,12.39Z" style="fill:#139a52;"/><path d="M598.86,70.44h25.33v8.86h-35.35V29.09h35.33c.21,2.84.02,5.78.11,8.82h-25.39v10.01h20.27v9.02h-20.3v13.51Z" style="fill:#139a52;"/><path d="M721.16,29.08v8.84h-25.33v10.01h20.28v8.93c-3.27.19-6.65.06-10.03.08-3.4.02-6.81,0-10.29,0v13.42h25.34v8.94h-35.37V29.08h35.38Z" style="fill:#139a52;"/><path d="M291.16,65.3c3.07,1.53,5.83,2.91,8.77,4.38-.06.32.02.9-.23,1.18-2.65,2.93-5.78,5.31-9.31,7.02-3.34,1.61-6.87,2.73-10.68,2.55-1.49-.07-3-.05-4.49,0-1.93.07-6.55-1.33-8.81-2.25-4.24-1.71-7.49-4.67-10.39-8.01-2.42-2.77-4.09-6.09-4.97-9.64-.45-1.83-.6-3.8-.66-5.76-.09-2.87.32-5.65,1.15-8.3.73-2.33,1.8-4.58,3.27-6.63,3.3-4.6,7.62-7.89,12.74-10.16,1.33-.59,2.83-.81,4.25-1.2,3.39-.93,6.87-.6,10.28-.41,2.34.14,4.68.96,6.93,1.87,3.58,1.45,6.6,3.67,9.38,6.26.67.63,1.13,1.49,1.79,2.38-3.04,1.53-5.91,2.97-8.73,4.39-1.06-.81-2.07-1.59-3.1-2.35-2.43-1.81-5.05-3.02-8.18-3.24-.98-.07-2.18-.74-3-.33-1.24.62-2.55.11-3.73.66-1.46.69-3.02,1.19-4.42,1.98-2.29,1.29-4.12,3.1-5.58,5.31-1.36,2.06-2.15,4.26-2.56,6.7-.18,1.1-.6,2.22-.39,3.29.69,3.52,1.28,7.12,4.07,9.79,1.03,2.24,3.35,3.08,5.1,4.51,1.11.9,2.7,1.28,4.07,1.53,1.96.35,4,1.09,6.01.56,1.93-.51,3.95-.7,5.78-1.71,1.82-1.01,3.6-2.01,5-3.57.22-.24.41-.51.65-.8Z" style="fill:#139a52;"/><path d="M591.43,110.86c6.47,9.43,12.8,18.67,19.3,28.14v-28.14c2.49,0,4.81-.02,7.13,0,1,.01,1.36.44,1.39,1.53.02.83,0,1.66,0,2.5v37.9c-2.91,0-5.8-.03-8.68.02-.94.02-1.38-.69-1.72-1.23-1.6-2.61-3.29-5.15-5.09-7.62-3.02-4.12-5.54-8.6-8.7-12.63-1.25-1.59-2.2-3.41-3.3-5.11-.21-.32-.49-.6-.96-1.17v27.7h-8.53v-38.88c0-.5-.01-1,0-1.5.04-1.08.39-1.48,1.43-1.49,2.58-.03,5.16,0,7.72,0Z" style="fill:#0576bd;"/><path d="M675.04,118.84c-2.34,2.07-5.19,2.43-7.52,3.87-1.68-1.13-3.1-2.75-5.14-3.49-1.03-.37-1.99-.86-3.13-.9-.77-.03-1.53-.47-2.29-.44-2.66.08-5.71.72-8.66,2.61-3.19,2.05-4.95,5.12-5.84,8.52-.65,2.5-.56,5.27.55,7.85,1.77,4.12,5.11,7.36,9.53,8.6.81.23,1.56.27,2.34.34,3.52.34,5.82.01,8.66-1.59,2.26-1.28,4.06-3.11,5.41-5.68-2.61-.46-5.06-.03-7.6-.27v-6.86h17.76c.43,2.32.13,4.67-.62,6.83-.89,2.55-2.23,4.9-3.91,7.14-1.89,2.53-4.36,4.14-6.91,5.68-2.05,1.25-4.4,1.8-6.78,2.34-2.47.57-4.9.44-7.31.33-2.06-.1-4.16-.73-6.09-1.5-1.71-.68-3.26-1.79-4.84-2.78-3.58-2.24-6.95-7.21-8.09-11.08-.4-1.35-.91-2.69-.82-4.16.08-1.41.03-2.83.01-4.24-.02-2.09.71-3.97,1.47-5.88,1.1-2.77,2.63-5.24,4.82-7.22,1.52-1.37,3.23-2.51,4.98-3.61,1.75-1.09,3.7-1.56,5.54-2.33,1.54-.65,7.94-.94,9.5-.52,3.74,1.02,7.45,2.05,10.62,4.55,1.48,1.17,2.73,2.51,4.36,3.89Z" style="fill:#0576bd;"/><path d="M473.27,110.95c-.13,1.42,1.26,2.29,1.07,3.64,1.59,2.75,2.51,5.78,3.65,8.71,1.59,4.08,3.43,8.05,4.92,12.18,1.04,2.87,2.3,5.69,3.43,8.55.85,2.14,1.92,4.19,2.52,6.44.19.72.71,1.35,1.25,2.33-3.07,0-5.87.02-8.66-.03-.33,0-.84-.32-.96-.61-.83-2.07-1.57-4.17-2.36-6.31h-19.49c-.59,1.43-1.15,2.77-1.71,4.12-.2.5-.51.99-.55,1.51-.09,1.09-.68,1.34-1.64,1.33-2.57-.03-5.14-.01-7.94-.01.28-.9.48-1.69.78-2.45.98-2.5,1.97-5,2.99-7.49,1-2.42,1.8-4.94,2.91-7.27,1.53-3.2,2.61-6.57,4.12-9.77.85-1.8,1.64-3.65,2.22-5.56.58-1.92,1.66-3.64,2.09-5.63.27-1.24,1.08-2.37,1.71-3.68h9.67ZM461.89,137.73h12.89c-2.37-5.13-3.93-10.51-6.64-15.68-2.15,5.4-4.19,10.5-6.25,15.68Z" style="fill:#0576bd;"/><path d="M849.15,79.33v-19.01c0-1.08.22-2.22-.06-3.22-.26-.93-1.03-1.73-1.61-2.56-2.16-3.08-4.27-6.21-6.42-9.29-3.01-4.32-6.13-8.56-8.95-13.01-.68-1.08-1.62-1.99-2.64-3.21,4.3-.04,8.41,0,12.32-.02,4.1,5.88,8.1,11.61,12.22,17.52,1.16-1.55,2.4-3.06,3.48-4.67,2.24-3.33,4.43-6.69,6.88-9.87.71-.93,1.26-1.98,1.84-2.92h12.03c-.22.46-.32.8-.52,1.08-1.34,1.86-2.72,3.69-4.05,5.56-2.32,3.27-4.31,6.76-6.86,9.88-1.03,1.26-1.77,2.75-2.67,4.12-1.39,2.09-2.74,4.21-4.27,6.2-.55.72-.76,1.34-.76,2.2.03,6.73.01,13.46.01,20.19v1.05h-9.99Z" style="fill:#139a52;"/><path d="M436.1,119.64c-2.76.95-5.24,1.79-7.86,2.69-.91-.08-.76-1.59-1.83-1.69-1-1.58-2.84-1.63-4.32-2.22-1.29-.52-2.85-.62-4.26-.52-1.93.14-3.86.69-5.6,1.51-1.29.6-2.25,1.87-2.83,3.22-.44,1.01.53,3.13,1.79,3.65,1.05.44,2.07.95,3.3,1.14,2.79.44,5.56,1.08,8.38,1.44.89.11,1.71.68,2.59.96,2.89.91,5.53,2.18,7.65,4.46,2.38,2.57,2.88,5.19,2.34,8.91-.35,2.42-1.97,3.87-3.01,5.77-2.41,1.55-4.76,3.07-7.62,3.95-3.23.99-6.43,1.08-9.6.78-2.65-.25-5.33-.93-7.73-2.37-2.38-1.43-4.44-3.15-5.9-5.53-.13-.21-.36-.35-.52-.54-.09-.12-.14-.27-.28-.59.22-.23.47-.72.77-.76,2.04-.23,3.74-1.63,5.84-1.62.34,0,.68-.33.95-.47,1.19.93,2.27,1.91,3.48,2.68,1.33.84,2.83,1.19,4.43,1.39,1.33.17,2.55.12,3.85-.03,1.03-.12,2.04-.18,3.04-.53,1.67-.58,2.74-1.71,3.76-3.12.78-1.08.32-1.92-.11-2.59-.92-1.43-2.41-2.4-4.05-2.75-2.69-.58-5.39-1.11-8.1-1.59-3.67-.65-7.22-1.91-10.22-4.2-1.65-1.25-2.52-3.07-3.14-5.17-1.18-3.98.51-7.57,2.45-10.09.79-1.03,2.04-1.79,3.21-2.43,2.18-1.18,4.36-2.19,6.92-2.65,2.64-.48,5.23-.41,7.8-.28,2.04.1,4.1.85,6.05,1.59,1.58.6,3.1,1.46,4.46,2.46,1.69,1.24,2.77,3.05,3.9,5.14Z" style="fill:#0576bd;"/><path d="M729.08,119.58c-2.89.99-5.44,1.87-8,2.75-.9-.18-.64-1.66-1.75-1.63-.99-1.59-2.86-1.56-4.32-2.24-1.04-.48-2.31-.45-3.49-.61-.41-.06-.98-.18-1.22.02-.91.79-2.06.2-3,.64-.77.36-1.6.63-2.34.97-.9.4-1.58,1.41-2.22,2.26-.86,1.15-.64,2.38.14,3.49.82,1.16,2.16,1.87,3.38,2.01,2.3.26,4.51.91,6.81,1.18,2.42.28,4.8,1.11,7.11,2.05,2.27.92,4.21,2.16,5.87,3.93,2.11,2.23,3.08,4.92,2.58,7.87-.33,1.94-1.17,3.76-2.48,5.47-1.92,2.52-4.73,3.44-7.17,5.02-2.24,0-4.26,1.32-6.57,1.04-1.23-.15-2.5.04-3.74-.05-1.1-.07-2.23-.19-3.28-.5-2.83-.86-5.69-1.75-7.85-3.93-1.36-1.38-2.62-2.86-3.88-4.25.25-.83.63-1.13,1.38-1.31,1.88-.45,3.61-1.41,5.57-1.61.2-.02.37-.27.7-.51.66.66,1.28,1.3,1.93,1.92,1,.96,3.93,2.14,5.31,2.26.94.08,2.03.7,2.75.39.98-.43,1.89-.28,2.83-.41,2.57-.37,4.61-1.53,5.83-3.94.29-.58.29-.96.04-1.55-.82-1.95-2.5-3.01-4.3-3.39-1.91-.41-3.83-.91-5.8-1.19-3.43-.49-6.84-1.37-9.99-2.95-2.37-1.19-3.8-2.29-5.02-4.58-1.09-2.05-1.6-4.38-1.02-6.69.43-1.71,1.15-3.31,2.15-4.86.98-1.53,2.4-2.33,3.72-3.2,1.44-.95,3.01-1.85,4.82-2.21,1.38-.27,2.72-.79,4.13-.85,1.66-.06,3.35-.18,4.99.02,4.66.55,9.07,1.89,12.53,5.27,1.05,1.02,1.77,2.39,2.87,3.92Z" style="fill:#0576bd;"/><path d="M216.42,124.93v54.9c-.55-.36-.87-.77-1.23-1.11-.36-.35-.88-.64-1.03-1.07-.4-1.16-1.39-1.78-2.16-2.6-2.81-3-5.8-5.85-8.41-9.01-1.68-2.03-3.72-3.71-5.31-5.77-1.72-2.22-3.88-4-5.64-6.15-1.03-1.26-2.11-2.46-3.22-3.64-.63-.67-.67-1.25,0-1.86.71-.64,1.18-1.53,2.21-1.88.57-.19.97-.86,1.45-1.31,3.52-3.35,6.88-6.88,10.61-9.99,3.18-2.66,6.22-5.52,9.7-7.83.99-.66,1.8-1.58,3.03-2.69Z" style="fill:#139a52;"/><path d="M532.49,110.91h8.92c-.19.6-.33,1.1-.49,1.58-1.1,3.2-2.53,6.27-3.66,9.46-.64,1.8-1.48,3.54-2.17,5.33-.8,2.08-1.92,4.05-2.58,6.16-.65,2.07-1.49,4.07-2.3,6.04-.87,2.12-1.78,4.25-2.68,6.37-.96,2.26-1.87,4.55-2.82,6.87h-10.79c-1.67-4.31-3.45-8.65-5.16-13.01-1.09-2.78-2.27-5.55-3.39-8.32-1.23-3.06-2.41-6.16-3.64-9.22-.97-2.41-2.02-4.82-3.04-7.22-.54-1.26-1.01-2.55-1.58-4h9.06c4.27,10.55,8.58,21.21,13.02,32.18.3-.49.5-.74.63-1.03,1.27-2.89,2.51-5.78,3.52-8.77.44-1.31.99-2.59,1.59-3.83,1.5-3.12,2.68-6.37,3.91-9.61.71-1.87,1.5-3.7,2.26-5.55.47-1.14.94-2.27,1.42-3.43Z" style="fill:#0576bd;"/><path d="M378.38,197.17h-5.36c-.78-1.79-1.55-3.55-2.35-5.39h-10.83c-.79,1.73-1.62,3.55-2.45,5.37h-23.88v-23.83h5.34v19.9h10.34c.5,0,1-.03,1.5,0,.73.06,1.18.45,1.2,1.22.01.56,0,1.13.16,1.72.63-1.47,1.59-2.71,2-4.29.38-1.46,1.58-2.63,1.87-4.21.1-.57.63-1.06.88-1.62,1.89-4.2,3.76-8.42,5.71-12.8,1.4,0,2.88.04,4.35-.02.77-.03,1.23.28,1.51.94,1,2.33,1.99,4.66,3.01,6.98.28.63.7,1.2.98,1.84,1.94,4.35,3.7,8.79,5.98,12.98.14.26.02.65.02,1.19ZM365.04,179.35c-.67,3.25-2.66,5.48-3.15,8.38,1.36,0,2.51.02,3.66,0,1.11-.03,2.23.14,3.26-.1-1.23-2.7-2.4-5.28-3.77-8.28Z" style="fill:#139a52;"/><path d="M194.5,80.97c6.86-4.61,14.32-8.3,21.89-11.97v36.11c-1.81-2.12-3.95-3.51-5.19-5.75-.08-.14-.23-.23-.35-.36-2.7-2.87-5.52-5.64-8.07-8.63-1.87-2.18-3.88-4.21-5.84-6.29-.87-.92-1.58-2-2.44-3.12Z" style="fill:#139a52;"/><path d="M586.36,173.3h5.52c4.24,5.07,8.37,10.01,12.47,14.91.17-.06.24-.07.29-.1.06-.05.13-.13.13-.19,0-4.81,0-9.63,0-14.66,1.58,0,3.13-.02,4.68,0,.86.02,1.28.46,1.31,1.36.03,1,0,1.99,0,2.99v19.51h-5.13c-4.5-5.31-9-10.64-13.77-16.28v16.3c-.95.03-1.83.06-2.71.07-.9.01-1.81,0-2.79,0v-23.92Z" style="fill:#139a52;"/><path d="M797.26,173.3h5.52c4.24,5.07,8.36,10,12.46,14.9.18-.05.25-.05.29-.09.06-.05.13-.12.13-.19,0-4.82,0-9.63,0-14.67,1.57,0,3.12-.02,4.68,0,.87.02,1.28.46,1.31,1.35.03.83,0,1.66,0,2.49v20.01h-5.14c-4.49-5.31-9-10.63-13.84-16.37v16.42h-5.42v-23.87Z" style="fill:#139a52;"/><path d="M313.75,197.73c-1.73-.06-3.48.08-5.25-.46-1.96-.6-3.8-1.44-5.37-2.67-1.05-.82-1.99-1.84-2.76-3.05-1.14-1.79-1.6-3.6-1.44-5.66.11-1.38-.05-2.82.3-4.12.78-2.9,2.45-4.89,5.09-6.49,2.66-1.61,5.57-2.43,8.7-2.52,2.43-.07,4.78.29,7.08,1.01,3.59,1.13,6.19,3.39,7.85,6.77,1.11,2.26,1.25,4.67.81,7.04-.28,1.47-.86,2.93-1.67,4.29-1.8,2.98-4.69,4.25-7.74,5.38-1.82.67-3.69.44-5.59.49ZM314.42,177.25c-1.25,0-2.09-.06-2.91.01-2.68.22-4.62,1.77-6.03,3.86-.66.97-.92,2.33-1,3.54-.08,1.24.04,2.62.52,3.75.44,1.04.85,2.2,1.83,2.99,1.57,1.26,4.26,2.3,6.28,2.32.67,0,1.34.07,1.99-.02.61-.08,1.19-.33,1.79-.48,2.69-.69,4.65-2.08,5.58-4.88.4-1.21.44-2.35.44-3.55,0-3.11-1.36-5.05-4.05-6.59-1.58-.9-3.15-1.05-4.43-.95Z" style="fill:#139a52;"/><path d="M564.7,152.74h-8.41v-39.06c0-.5-.02-1,0-1.5.05-.87.46-1.3,1.36-1.31,2.32-.03,4.64,0,7.04,0v41.88Z" style="fill:#0576bd;"/><path d="M386.87,188.82v8.32h-5.37v-23.88c4.3,0,8.62-.16,12.91.08,1.62.09,3.34.45,4.91,1.36,1.72,1,2.94,2.3,3.35,4.14.52,2.33.46,4.67-1.58,6.41-.95.81-1.97,1.55-2.98,2.33,2,3,4.13,6.21,6.36,9.56h-6.32c-1.81-2.72-3.62-5.45-5.53-8.33h-5.74ZM386.93,184.74h4.41c.17,0,.33-.01.5,0,1.15.09,2.11-.49,3.14-.83,1.42-.48,2-1.38,1.94-2.91-.03-.91-.03-2.04-.61-2.44-.84-.58-1.74-1.33-2.92-1.31-2.14.02-4.27,0-6.46,0v7.49Z" style="fill:#139a52;"/><path d="M850.35,174.6c-1.07,1.11-.58,2.31-.76,3.6-1.03-.15-2.18-.09-3.1-.52-.71-.33-1.36-.39-2.07-.44-.7-.05-1.51.28-2.05-.49-.03-.04-.16,0-.24,0-.33,0-.79-.14-.98.02-1.24,1.06-2.87-.06-4.16.84-.94.65-2.08,1.02-3.06,1.62-1.31.81-1.67,2.27-2.11,3.6-1.4,4.32,1.02,8.95,5.31,10.39,2.31.78,4.68.43,7.03.46.56,0,.99-.48.98-1.18-.02-1.23,0-2.46,0-3.76h-3.91v-3.43c3.18-.2,6.46-.03,9.82-.1v10.9c-2.29.63-4.6,1.63-7.17,1.6-1.75-.02-3.49,0-5.24,0-4.63.01-8.38-1.93-11.15-5.5-1.11-1.42-2.1-3.13-1.87-5.2.14-1.23,0-2.49.03-3.73.06-1.88.66-3.55,2.07-4.87,1.52-1.42,2.76-3.22,4.88-3.86,1.56-.47,3.08-1.02,4.68-1.38,1.96-.44,3.87-.36,5.8-.4,1.5-.02,4.67.56,7.25,1.82Z" style="fill:#139a52;"/><path d="M634.75,188.77h-3.9v-3.48h9.81v10.83c-2.28.61-4.58,1.64-7.15,1.61-1.75-.02-3.49,0-5.24,0-4.4,0-8.58-1.9-11.16-5.48-1.06-1.47-2.12-3.12-1.88-5.2.14-1.23-.01-2.49.03-3.73.07-1.87.64-3.56,2.06-4.88,1.52-1.42,2.76-3.21,4.88-3.87,1.55-.48,3.08-1.02,4.68-1.39,1.95-.45,3.87-.43,5.8-.39,2.44.06,4.81.6,6.93,1.61-.19,1.3-.36,2.54-.56,3.92-.75-.19-1.49-.4-2.23-.56-.84-.19-1.68-.4-2.54-.49-.87-.09-1.75.09-2.56-.48-.28-.2-1-.2-1.19,0-.55.61-1.19.5-1.82.46-2.14-.14-3.71,1.09-5.35,2.15-1.23.8-1.52,2.18-1.92,3.43-1.46,4.48,1.01,8.94,5.52,10.43,2.27.75,4.53.33,6.79.43.57.02,1-.47.99-1.16,0-1.23,0-2.46,0-3.77Z" style="fill:#139a52;"/><path d="M471.92,173.31h5.35v9.32h14.02v-9.28h5.27c.36,1.91.48,16.83.16,23.78h-5.35v-10.34h-14.02v10.37h-5.44v-23.86Z" style="fill:#139a52;"/><path d="M295.23,174.43c-.15,1.42-.29,2.76-.45,4.33-.44-.1-.93-.2-1.42-.33-1.98-.49-3.89-1.35-6.01-1.19-.54.04-1.14.21-1.61-.37-.14-.17-.75-.23-.91-.09-.7.64-1.53.4-2.31.49-.36.04-.7.3-1.04.48-1.91,1.03-2,1.79-.54,3.27,1.06,1.08,2.47,1.36,3.8,1.68,2.65.63,5.24,1.35,7.71,2.51,1.21.57,2.28,1.32,2.99,2.36,1.06,1.56,1.29,3.32.71,5.21-.86,2.8-3.24,3.6-5.59,4.43-2.45.86-5.02.34-7.53.53-2.62.2-5.05-.75-7.58-1.04-.61-.07-1.02-.48-1.01-1.16.02-1.27-.22-2.6.76-3.86,1.27.34,2.62.65,3.94,1.06,2.36.73,6.26,1.28,7.83.98.6-.12,1.23-.28,1.76-.57.8-.43,1.68-1,1.66-1.98-.03-.99-.33-2.03-1.5-2.44-1.38-.48-2.73-1.05-4.13-1.48-2.14-.66-4.36-1.09-6.4-2.03-.77-.36-1.45-.94-2.14-1.46-2.65-2.01-2.23-5.74-.34-8.15,1.12-1.43,2.98-1.63,4.53-2.31.77-.34,1.68-.47,2.53-.51,1.75-.07,3.55-.29,5.23.04,2.43.48,4.96.64,7.07,1.61Z" style="fill:#139a52;"/><path d="M709,191.66c.87.22,1.72.38,2.53.65.73.24,1.44.91,2.11.85,1.12-.1,2.01.54,3.05.56,1.25.02,2.52.13,3.74-.04.97-.13,1.95-.52,2.83-.98,1.22-.65,1.15-2.56.01-3.48-1.38-1.11-3.1-1.41-4.69-1.95-2.12-.72-4.31-1.2-6.41-2.02-1.35-.52-2.35-1.47-3.18-2.54-1.16-1.51-.96-3.28-.48-5.03.81-2.99,3.42-3.62,5.84-4.41,2.44-.8,5.05-.78,7.52-.44,2.45.33,4.97.63,7.41,1.68-.88,1.22-.51,2.62-.61,4.21-.51-.09-1.02-.12-1.5-.26-1.96-.58-3.88-1.33-5.99-1.23-.54.03-1.17.24-1.6-.35-1.9.27-3.95.08-5.44,1.68-.61.65-.56,1.16,0,1.88,1.09,1.42,2.74,1.78,4.3,2.29.44.14.91.22,1.35.35,2.44.72,4.87,1.34,7.19,2.57,3.05,1.63,4.52,5.62,1.87,9.1-1.07,1.41-2.84,1.89-4.46,2.44-2.29.78-4.69.37-7.03.54-2.78.21-5.4-.63-8.08-1.03-.64-.09-1.06-.46-1.06-1.12,0-1.28-.22-2.59.78-3.94Z" style="fill:#139a52;"/><path d="M875.56,178.98c-.78-.3-1.33-.6-1.92-.71-1.94-.38-3.78-1.24-5.83-1.04-.43.04-.88-.28-1.33-.36-.38-.07-.97-.19-1.14,0-.49.54-1.06.34-1.61.39-.25.02-.56-.09-.74.02-.85.56-2.01.83-2.33,1.92-.31,1.08.72,1.59,1.35,2.15,1.02.91,2.37,1.1,3.65,1.41,2.78.68,5.55,1.37,8.08,2.83,1.52.87,2.65,1.91,3.16,3.66.76,2.58-.33,5.32-2.68,6.66-2.18,1.24-4.47,1.94-6.99,1.83-1.16-.05-2.34-.1-3.5,0-2.62.24-5.05-.75-7.58-1.03-.62-.07-1.03-.48-1.02-1.15.01-1.27-.22-2.6.75-3.87,1.27.34,2.61.65,3.93,1.06,2.44.76,6.18,1.28,7.83.98.6-.11,1.22-.29,1.77-.55.84-.4,1.53-1.01,1.7-1.99.14-.8-.59-2.03-1.53-2.42-1.35-.57-2.73-1.07-4.12-1.5-2.14-.66-4.36-1.08-6.4-2.03-.77-.36-1.46-.93-2.14-1.45-2.64-2-2.27-5.73-.35-8.14,1.17-1.47,3.06-1.81,4.76-2.35,2.46-.77,5.05-.76,7.52-.44,2.45.32,4.96.67,7.37,1.71-.91,1.22-.49,2.64-.66,4.43Z" style="fill:#139a52;"/><path d="M522.76,193.14v4.01h-19.83v-23.83h19.28v3.77s0,.02-.07.07c-.06.04-.14.09-.21.09-4.49,0-8.97,0-13.54,0v5.43h10.85v4.02h-10.88v6.43h14.39Z" style="fill:#139a52;"/><path d="M534.39,173.31h5.31c.37.61.83,1.18,1.09,1.82,1.46,3.64,3.22,7.15,4.8,10.73,1.43,3.23,3.01,6.4,4.29,9.69.19.48.35.96.58,1.6h-5.54c-.74-1.69-1.5-3.45-2.36-5.42-3.22,0-6.61-.02-10,.03-.41,0-.97.34-1.18.69-.46.79-.73,1.69-1.09,2.54-.3.71-.61,1.42-.92,2.15h-5.72c.26-.54.45-.93.64-1.33,1.99-4.16,3.69-8.45,5.73-12.59,1.59-3.24,2.91-6.61,4.35-9.9ZM540.75,187.67c-1.24-2.71-2.43-5.32-3.73-8.16-.85,2.96-2.5,5.32-3.25,8.16h6.98Z" style="fill:#139a52;"/><path d="M749.98,191.79h-10.82c-.83,1.81-1.66,3.63-2.46,5.37h-5.62c.25-.53.45-.91.62-1.3,1.91-4.2,3.83-8.39,5.71-12.59,1.48-3.3,2.9-6.61,4.36-9.95h5.17c.26.25.61.43.73.71,1.73,4.03,3.28,8.13,5.49,11.94-.05,1.35.87,2.3,1.41,3.41,1.07,2.22,1.75,4.61,3.09,6.7.15.23.02.63.02,1.05h-5.37c-.74-1.69-1.54-3.52-2.34-5.34ZM748.12,187.65c-1.22-2.68-2.41-5.31-3.65-8.02-1.16,2.69-2.27,5.27-3.46,8.02h7.1Z" style="fill:#139a52;"/><path d="M769.4,190.79c1.66-3.46,2.84-7.06,4.79-10.3.32-2.27,1.92-4.03,2.51-6.2.1-.36.41-.67.61-.97h5.42c-.1.53-.08,1.03-.29,1.4-1.46,2.63-2.49,5.46-3.76,8.18-1.76,3.76-3.5,7.54-5.23,11.31-.45.98-.82,1.99-1.22,2.96h-5.48c-.66-1.2-1.62-2.35-1.94-3.66-.41-1.64-1.35-2.95-2.01-4.42-.66-1.47-1.32-2.95-1.94-4.44-1.44-3.49-3.02-6.91-4.65-10.31-.12-.26-.02-.63-.02-1.02h5.39c2.58,5.76,5.19,11.58,7.82,17.46Z" style="fill:#139a52;"/><path d="M165.62,216.15h-25.61c3.57-6.19,7.09-12.3,10.67-18.51,4.98,6.16,9.88,12.23,14.95,18.51Z" style="fill:#139a52;"/><path d="M562.8,177.17v19.96h-5.42c-.19-3.19-.06-6.47-.08-9.76-.02-3.31,0-6.63,0-10.03h-8.35c-.32-1.35-.02-2.64-.2-4h22.49v3.82h-8.44Z" style="fill:#139a52;"/><path d="M101.9,216.07h-18.93c.15-.52.22-1.04.44-1.49,1.75-3.59,3.04-7.38,4.9-10.93.56-1.08.9-2.28,1.42-3.65,4.34,5.18,7.82,10.74,12.18,16.06Z" style="fill:#139a52;"/><path d="M574.86,173.31h5.34v23.84c-.79.02-1.68.06-2.56.07-.9.01-1.8,0-2.78,0v-23.91Z" style="fill:#139a52;"/><path d="M785.76,173.26h5.34v23.89c-.79.02-1.67.06-2.55.07-.9.01-1.81,0-2.79,0v-23.96Z" style="fill:#139a52;"/><path d="M248.95,188.23c-.58-2.75,2.66-5.89,5.94-5.89,3.67,0,6.08,2.99,6.07,6.27,0,1.8-.93,3.11-2.02,4.41-1.08,1.3-2.77.97-4.05,1.7-1.67-.65-3.55-.83-4.72-2.5-.86-1.23-1.28-2.52-1.21-3.99Z" style="fill:#139a52;"/><path d="M445.37,188.04c-.28-1.63.68-2.77,1.81-3.89,1.18-1.19,2.7-1.96,4.21-1.82,3.66.34,6.01,2.83,5.92,6.14-.11,3.88-2.28,5.43-5.87,6.26-1.27-.75-2.89-.48-4.07-1.66-1.42-1.42-2.13-2.96-1.99-5.02Z" style="fill:#139a52;"/><path d="M682.75,188.02c-.28-1.64.7-2.76,1.82-3.89,1.18-1.19,2.73-1.93,4.21-1.8,3.7.33,5.82,2.89,5.95,6.16.07,1.72-.82,2.96-1.75,4.28-1.06,1.52-2.89,1.13-4.2,1.96-1.28-.73-2.88-.49-4.07-1.68-1.42-1.42-2.12-2.97-1.97-5.03Z" style="fill:#139a52;"/></g></svg>