<?xml version="1.0" encoding="UTF-8"?><svg id="Layer_2" xmlns="http://www.w3.org/2000/svg" viewBox="0 0 30.84 30.84"><g id="Layer_1-2"><rect width="30.84" height="30.84" style="fill:#fff;"/><path d="M14.64,11c.36-1.08.93-2.07,1.38-3.12.32-.75.66-1.48.98-2.22.07-.05.09-.11.03-.19-.04.04-.08.08-.11.11-1,1.4-2.01,2.79-3.01,4.19-.15.21-.31.43-.54.75-.21-2.22-.41-4.32-.61-6.42-.02,0-.05,0-.07,0-.2,2.1-.41,4.21-.62,6.43-1.2-1.68-2.33-3.27-3.46-4.86-.04.03-.09.05-.13.08.81,1.78,1.61,3.56,2.46,5.43-1.82-.82-3.55-1.6-5.28-2.39-.07-.03-.13-.06-.2-.08-.09-.08-.17-.09-.28-.01.08.04.14.07.21.1.05.03.1.07.15.1,1.55,1.12,3.09,2.24,4.73,3.43-2.08.2-4.05.39-6.03.58,0,.04,0,.09.01.13,1.98.19,3.97.39,6.05.59-1.7,1.2-3.33,2.35-4.95,3.5.02.05.04.09.07.14,1.81-.82,3.61-1.64,5.42-2.45.04.02.08.05.12.07-2.26,2.9-4.06,6.05-5.27,9.54-.51,0-1.02,0-1.51,0-.46-.01-.76-.3-.79-.76-.02-.22,0-.44,0-.66,0-6.07,0-12.15,0-18.22,0-.91.22-1.13,1.14-1.13,6.2,0,12.4,0,18.6,0,.86,0,1.24.5,1.04,1.35-.03.14-.12.17-.22.21-3.38,1.41-6.44,3.32-9.2,5.73-.02.02-.06.02-.09.03h0M8.49,5.65s.01-.06,0-.08c-.02-.02-.06-.03-.08-.02-.05.03-.04.07,0,.09.02.01.05,0,.08,0Z" style="fill:#0a76bd; fill-rule:evenodd;"/><path d="M18.3,21.95c.77-1.17,1.62-2.24,2.59-3.3.84.91,1.66,1.81,2.48,2.71.03.03.03.1.06.12.92.51.73,1.38.71,2.19,0,.49-.31.77-.81.77-.92,0-1.85,0-2.77,0-.17,0-.29-.03-.41-.17-.61-.77-1.23-1.54-1.85-2.32" style="fill:#119951; fill-rule:evenodd;"/><path d="M9.16,19.12c.72.97,1.41,1.91,2.1,2.85.12.16.06.28,0,.43-.26.57-.52,1.14-.76,1.72-.1.24-.22.33-.48.32-.77-.02-1.53,0-2.3-.02-.28,0-.41.09-.52.34-.71,1.55-1.3,3.15-1.8,4.79-.29-1.25,1.98-7.53,3.77-10.42" style="fill:#119951; fill-rule:evenodd;"/><path d="M17.74,21.23c-.51-.63-1-1.23-1.48-1.84-.35-.43-.69-.87-1.05-1.31" style="fill:#119951; fill-rule:evenodd;"/><path d="M21.18,10.91c-.64-.72-1.28-1.44-1.96-2.2,3.22-2.09,6.82-3.55,10.68-4.42-.57.24-1.15.48-1.71.73-1.08.48-2.15.96-3.22,1.47-.26.12-.48.34-.75.47-.15.07-.09.22-.09.34,0,.56,0,1.13,0,1.69,0,.18,0,.32-.21.42-.92.42-1.8.93-2.74,1.5" style="fill:#119951; fill-rule:evenodd;"/><path d="M14.49,18.58c.89,1.11,1.75,2.17,2.6,3.23.1.13.13.24.02.38-.47.6-.75,1.32-1.13,1.98-.12.21-.25.25-.47.28-.96.14-1.68-.11-2.14-1.03-.2-.41-.53-.76-.81-1.12-.11-.15-.17-.27-.06-.46.6-1.1,1.23-2.18,1.99-3.24" style="fill:#119951; fill-rule:evenodd;"/><path d="M23.96,14.74c-1.1.83-2.1,1.68-3.05,2.65-.93-1.01-1.83-1.99-2.76-3.01.92-.89,1.91-1.65,2.96-2.38.94.9,1.87,1.8,2.84,2.73" style="fill:#119951; fill-rule:evenodd;"/><path d="M11.82,21.26c-.74-1.02-1.45-1.99-2.16-2.96.65-1.05,1.37-2.02,2.17-3.02.68.84,1.33,1.65,1.98,2.46.12.15.02.26-.06.37-.69.99-1.31,2.01-1.93,3.15" style="fill:#119951; fill-rule:evenodd;"/><path d="M14.46,17.13c-.66-.82-1.27-1.59-1.89-2.35-.1-.13-.12-.23,0-.37.71-.81,1.46-1.57,2.28-2.32.7.76,1.37,1.49,2.07,2.24-.88.88-1.67,1.79-2.46,2.79" style="fill:#119951; fill-rule:evenodd;"/><path d="M18.37,9.27c.68.73,1.33,1.44,2.01,2.18-.93.67-1.89,1.41-2.83,2.28-.68-.74-1.35-1.47-2.05-2.23.89-.8,1.82-1.5,2.87-2.22" style="fill:#119951; fill-rule:evenodd;"/><path d="M24.12,20.9c-.92-1-1.77-1.93-2.64-2.88.83-.84,1.68-1.59,2.64-2.33v5.21" style="fill:#119951; fill-rule:evenodd;"/><path d="M22.03,11.42c.58-.38,1.29-.76,2.08-1.14v3.43c-.72-.79-1.39-1.53-2.08-2.28" style="fill:#119951; fill-rule:evenodd;"/><path d="M16.81,24.39c.33-.58.64-1.11.98-1.7.47.59.9,1.12,1.38,1.7h-2.36" style="fill:#119951; fill-rule:evenodd;"/><path d="M11.29,24.42c.22-.5.42-.96.66-1.5" style="fill:#119951; fill-rule:evenodd;"/></g></svg>