<?xml version="1.0" encoding="UTF-8"?><svg xmlns="http://www.w3.org/2000/svg" viewBox="0 0 78.35 78.35"><g style="isolation:isolate;"><g id="Layer_2"><g id="Layer_1-2"><rect width="78.35" height="78.35" style="fill:#fff;"/><g style="isolation:isolate; mix-blend-mode:multiply;"><path d="M37.17,27.93c.93-2.74,2.37-5.26,3.5-7.91.81-1.89,1.67-3.77,2.5-5.65.17-.13.23-.28.09-.47-.1.1-.19.19-.29.29-2.55,3.54-5.1,7.09-7.65,10.63-.39.54-.78,1.08-1.37,1.91-.54-5.64-1.05-10.97-1.55-16.3-.06,0-.12,0-.18.01-.52,5.34-1.04,10.69-1.58,16.33-3.04-4.26-5.91-8.3-8.79-12.34-.11.06-.23.13-.34.19,2.05,4.52,4.09,9.03,6.25,13.79-4.61-2.09-9.01-4.08-13.41-6.07-.17-.07-.34-.14-.51-.21-.22-.2-.44-.23-.72-.04.2.09.37.18.54.26.13.08.26.17.39.25,3.92,2.84,7.85,5.69,12.03,8.71-5.27.51-10.29.99-15.31,1.47.01.11.02.23.03.34,5.04.49,10.08.99,15.37,1.51-4.33,3.06-8.45,5.98-12.58,8.89.06.12.11.23.17.35,4.59-2.08,9.17-4.15,13.76-6.23.1.06.2.12.29.18-5.73,7.37-10.3,15.37-13.38,24.22-1.31,0-2.58.02-3.85,0-1.17-.03-1.92-.76-2.01-1.93-.04-.55,0-1.11,0-1.67,0-15.43-.01-30.85-.02-46.28,0-2.31.55-2.86,2.88-2.86,15.74,0,31.49.01,47.23.02,2.2,0,3.15,1.27,2.63,3.43-.08.35-.3.44-.55.54-8.57,3.59-16.36,8.44-23.37,14.55-.05.05-.14.06-.22.08l.02.02M21.58,14.36c0-.07.03-.16,0-.19-.05-.04-.15-.08-.2-.06-.13.07-.11.17.01.24.05.03.13.01.19.01Z" style="fill:#0a76bd; fill-rule:evenodd;"/><path d="M46.48,55.75c1.95-2.97,4.1-5.7,6.58-8.38,2.13,2.32,4.21,4.59,6.29,6.87.08.08.07.26.16.31,2.34,1.29,1.85,3.51,1.81,5.57-.02,1.26-.78,1.94-2.07,1.96-2.35.02-4.69,0-7.04,0-.42,0-.75-.08-1.03-.44-1.55-1.96-3.12-3.9-4.71-5.89" style="fill:#119951; fill-rule:evenodd;"/><path d="M23.26,48.56c1.82,2.47,3.57,4.85,5.34,7.23.3.4.15.72-.02,1.1-.66,1.44-1.33,2.88-1.92,4.36-.25.61-.56.83-1.22.81-1.95-.05-3.9,0-5.84-.04-.7-.02-1.04.23-1.33.86-1.8,3.94-3.31,7.99-4.58,12.15-.73-3.19,5.02-19.12,9.58-26.47" style="fill:#119951; fill-rule:evenodd;"/><path d="M51.57,45.75c-2.38,2.6-4.47,5.24-6.51,8.16-1.3-1.61-2.54-3.14-3.77-4.66-.89-1.1-1.76-2.22-2.65-3.32-.29-.35-.51-.64-.13-1.12,1.85-2.33,3.74-4.61,5.98-6.72,2.35,2.55,4.68,5.07,7.07,7.66" style="fill:#119951; fill-rule:evenodd;"/><path d="M53.79,27.71c-1.63-1.82-3.26-3.65-4.98-5.57,8.18-5.31,17.32-9.02,27.11-11.22-1.45.62-2.91,1.22-4.35,1.86-2.73,1.22-5.47,2.45-8.17,3.73-.66.32-1.21.87-1.9,1.18-.38.17-.22.56-.22.85-.01,1.43,0,2.86,0,4.29,0,.45,0,.82-.53,1.06-2.34,1.08-4.58,2.35-6.97,3.81" style="fill:#119951; fill-rule:evenodd;"/><path d="M36.81,47.19c2.27,2.82,4.43,5.51,6.6,8.19.26.32.32.61.05.96-1.2,1.53-1.9,3.35-2.86,5.02-.3.52-.63.64-1.2.72-2.43.35-4.28-.27-5.44-2.62-.51-1.04-1.35-1.92-2.06-2.86-.28-.38-.42-.7-.16-1.17,1.52-2.79,3.11-5.53,5.06-8.24" style="fill:#119951; fill-rule:evenodd;"/><path d="M60.85,37.43c-2.79,2.12-5.33,4.27-7.74,6.74-2.35-2.56-4.64-5.06-7.01-7.64,2.34-2.26,4.84-4.18,7.53-6.03,2.38,2.29,4.74,4.56,7.22,6.94" style="fill:#119951; fill-rule:evenodd;"/><path d="M30.02,54c-1.89-2.59-3.68-5.04-5.49-7.52,1.64-2.67,3.47-5.14,5.52-7.66,1.73,2.14,3.37,4.19,5.03,6.24.31.39.05.65-.16.94-1.75,2.51-3.33,5.12-4.9,8.01" style="fill:#119951; fill-rule:evenodd;"/><path d="M36.72,43.51c-1.68-2.09-3.23-4.04-4.8-5.98-.27-.33-.3-.59,0-.93,1.8-2.05,3.71-4,5.79-5.88,1.77,1.92,3.49,3.77,5.26,5.7-2.23,2.22-4.25,4.56-6.25,7.1" style="fill:#119951; fill-rule:evenodd;"/><path d="M46.67,23.55c1.72,1.86,3.38,3.67,5.1,5.53-2.36,1.69-4.8,3.58-7.18,5.79-1.72-1.88-3.42-3.73-5.2-5.67,2.26-2.02,4.61-3.81,7.28-5.65" style="fill:#119951; fill-rule:evenodd;"/><path d="M61.26,53.09c-2.32-2.54-4.49-4.9-6.7-7.32,2.1-2.13,4.27-4.03,6.7-5.92v13.24" style="fill:#119951; fill-rule:evenodd;"/><path d="M55.95,29.01c1.48-.96,3.29-1.92,5.28-2.91v8.71c-1.82-2-3.54-3.88-5.28-5.8" style="fill:#119951; fill-rule:evenodd;"/><path d="M42.71,61.95c.85-1.47,1.63-2.82,2.5-4.33,1.2,1.49,2.29,2.84,3.5,4.33h-6" style="fill:#119951; fill-rule:evenodd;"/><path d="M33.18,62.02h-4.5c.56-1.27,1.08-2.43,1.69-3.81.97,1.31,1.82,2.46,2.82,3.81" style="fill:#119951; fill-rule:evenodd;"/></g></g></g></g></svg>