<?xml version="1.0" encoding="UTF-8"?><svg id="Layer_2" xmlns="http://www.w3.org/2000/svg" viewBox="0 0 114.68 109.9"><g id="Layer_1-2"><path d="M74.06,54.95v-2.39c0-1.8-.59-3.06-1.79-4.33-1.8-1.92-2.98-4.29-2.98-7.22,0-5.5,4.28-9.96,9.55-9.96s9.55,4.46,9.55,9.96c0,2.92-1.17,5.3-2.98,7.22-1.2,1.27-1.8,2.53-1.8,4.33v2.39h-9.56Z" style="fill:none; stroke:#fff; stroke-linejoin:round; stroke-width:4.78px;"/><line x1="78.84" y1="23.89" x2="78.84" y2="11.95" style="fill:none; stroke:#fff; stroke-linejoin:round; stroke-width:4.78px;"/><line x1="66.89" y1="28.67" x2="59.73" y2="21.5" style="fill:none; stroke:#fff; stroke-linejoin:round; stroke-width:4.78px;"/><line x1="64.51" y1="52.56" x2="57.34" y2="59.73" style="fill:none; stroke:#fff; stroke-linejoin:round; stroke-width:4.78px;"/><line x1="93.17" y1="52.56" x2="100.34" y2="59.73" style="fill:none; stroke:#fff; stroke-linejoin:round; stroke-width:4.78px;"/><line x1="95.56" y1="40.62" x2="105.12" y2="40.62" style="fill:none; stroke:#fff; stroke-linejoin:round; stroke-width:4.78px;"/><line x1="90.79" y1="28.67" x2="97.95" y2="21.5" style="fill:none; stroke:#fff; stroke-linejoin:round; stroke-width:4.78px;"/><polyline points="45.39 31.06 45.39 2.39 112.29 2.39 112.29 83.62 45.39 83.62 45.39 54.95" style="fill:none; stroke:#fff; stroke-miterlimit:10; stroke-width:4.78px;"/><path d="M23.89,31.06c5.47,0,9.56-4.58,9.56-10.24v-3.41c0-5.65-4.09-10.24-9.56-10.24s-9.56,4.58-9.56,10.24v3.41c0,5.65,4.09,10.24,9.56,10.24Z" style="fill:none; stroke:#fff; stroke-miterlimit:10; stroke-width:4.78px;"/><path d="M35.84,109.9v-62.12h14.33c7.21,0,9.56-4.26,9.56-9.56H14.33c-8.56,0-11.94,3.61-11.94,14.33v16.72c0,5.12,2.04,9.56,7.17,9.56h2.39" style="fill:none; stroke:#fff; stroke-miterlimit:10; stroke-width:4.78px;"/><line x1="23.89" y1="71.67" x2="23.89" y2="109.9" style="fill:none; stroke:#fff; stroke-miterlimit:10; stroke-width:4.78px;"/><line x1="11.95" y1="52.56" x2="11.95" y2="109.9" style="fill:none; stroke:#fff; stroke-miterlimit:10; stroke-width:4.78px;"/><polyline points="74.06 54.95 74.06 59.73 76.45 62.12 81.23 62.12 83.62 59.73 83.62 54.95" style="fill:none; stroke:#fff; stroke-linejoin:round; stroke-width:4.78px;"/></g></svg>