<?xml version="1.0" encoding="UTF-8"?><svg id="Layer_2" xmlns="http://www.w3.org/2000/svg" viewBox="0 0 119.02 130.42"><g id="Layer_1-2"><path d="M118.5,77.42c-1.15-2.61-3.67-4.01-6.44-3.56-2.4.39-4.21,2.07-4.4,4.09-.11,1.13.72,2.13,1.85,2.24,1.11.1,2.1-.7,2.23-1.8.11-.16.63-.52,1.37-.5.75.02,1.3.42,1.63,1.19.47,1.07-.07,2.81-.84,3.6-2.08,2.11-4.85,1.87-6.76.94-.15-.07-.31-.12-.47-.16-.8-6.14-3.06-11.98-6.72-16.73-4.75-6.16-10.7-10.14-18.19-12.18-1.09-.3-2.22.35-2.52,1.44-.3,1.09.35,2.22,1.44,2.52,6.59,1.79,11.83,5.3,16.01,10.72,7.35,9.53,8.29,24.08,2.29,35.42l-12.43,21.67h-4.02l-4.25-5.92c.62-.16,1.24-.32,1.84-.5,1.09-.32,1.7-1.47,1.38-2.55s-1.46-1.7-2.55-1.38c-2.1.62-4.29,1.09-6.51,1.39-7.99,1.07-13.75.84-20.93-.27-.29-.11-.59-.16-.89-.14-1.39-.23-2.84-.48-4.38-.77-1.11-.21-2.18.53-2.39,1.64s.53,2.19,1.64,2.39c.65.12,1.29.24,1.91.35l-3.49,5.76h-3.5l-19.07-16.05c-8.78-7.39-13.61-7.9-15.49-7.69-.04-.08-.09-.22-.11-.4l-1.64-14.49c-.05-.4.07-.7.15-.82,4.54-.73,9.89-2.97,18.01-13.51,1.09-1.4,1.82-2.05,2.52-2.68.4-.36.81-.73,1.25-1.2,0,0,.01-.01.02-.02.01-.01.02-.02.03-.03.01-.01.02-.03.04-.04.03-.03.05-.06.08-.09.02-.03.04-.05.06-.08.02-.03.04-.05.06-.08.02-.03.04-.06.06-.1.01-.03.03-.05.04-.07.02-.04.03-.07.05-.11.01-.03.02-.05.03-.08.01-.04.03-.07.04-.11.01-.03.02-.06.03-.09,0-.03.02-.07.03-.1,0-.03.01-.07.02-.1,0-.03,0-.06.01-.09,0-.04,0-.07.01-.11,0-.03,0-.05,0-.08,0-.04,0-.08,0-.12,0-.03,0-.06,0-.08,0-.04,0-.07-.01-.11,0-.03,0-.06-.01-.1,0-.03-.01-.06-.02-.1,0-.04-.02-.08-.03-.12,0-.02,0-.04-.01-.05-.07-.23-1.64-5.21-5.8-12.4,7.98-.9,14.29.78,18.1,2.29-.86.37-1.71.76-2.55,1.18-1.01.51-1.42,1.74-.92,2.75.36.72,1.08,1.14,1.84,1.14.31,0,.62-.07.92-.22,2.04-1.02,4.17-1.88,6.45-2.61,0,0,.01,0,.02,0,1.34-.43,2.73-.8,4.18-1.13,1.1-.25,1.79-1.35,1.54-2.46-.25-1.1-1.35-1.79-2.46-1.54-1.22.28-2.41.6-3.56.94-2.93-1.69-13-6.59-27.27-3.92-.67.12-1.23.57-1.5,1.19-.27.62-.22,1.34.14,1.91,3.75,6,5.76,10.81,6.55,12.93-.05.05-.1.09-.15.14-.76.68-1.71,1.53-3.03,3.22-7.39,9.59-11.87,11.44-15.62,12.01-.04,0-.07.01-.11.02-2.11.44-3.55,2.76-3.26,5.28l1.64,14.49c.16,1.37.81,2.58,1.79,3.32.83.62,1.84.87,2.84.7.04,0,3.75-.54,12.41,6.74l19.65,16.54c.37.31.84.48,1.32.48h5.4c.72,0,1.38-.37,1.75-.99l4.95-8.16c3.84.57,7.33.88,10.99.88,3.16,0,6.45-.23,10.22-.74.3-.04.59-.08.88-.13l5.94,8.27c.39.54,1.01.85,1.67.85h6.26c.73,0,1.41-.39,1.78-1.03l13.03-22.72s0-.02.01-.03c0-.01.01-.02.02-.03,3.06-5.75,4.5-12.26,4.4-18.67.99.3,2,.45,2.99.45,2.54,0,4.98-.97,6.83-2.84,1.78-1.81,2.9-5.35,1.67-8.13" style="fill:#fff;"/><path d="M50.48,65.27c-1.09.3-1.74,1.42-1.44,2.52.3,1.09,1.42,1.74,2.52,1.44.13-.03,12.77-3.37,26.73.01.16.04.33.06.49.06.93,0,1.76-.63,1.99-1.57.27-1.1-.41-2.21-1.51-2.48-15.02-3.65-28.22-.14-28.77.01" style="fill:#fff;"/><path d="M64.9,56.45c8.78,0,15.93-7.15,15.93-15.93s-7.15-15.93-15.93-15.93-15.93,7.14-15.93,15.93,7.14,15.93,15.93,15.93M64.9,28.7c6.52,0,11.82,5.3,11.82,11.82s-5.3,11.82-11.82,11.82-11.82-5.3-11.82-11.82,5.3-11.82,11.82-11.82Z" style="fill:#fff;"/><path d="M59.82,18.81s.03,0,.04,0c1.13-.02,2.03-.96,2.01-2.09l-.31-14.7c-.02-1.13-.97-2.04-2.09-2.01-1.13.02-2.03.96-2.01,2.09l.31,14.7c.02,1.12.94,2.01,2.05,2.01" style="fill:#fff;"/><path d="M69.98,21.18c1.13,0,2.05-.92,2.05-2.05v-7.73c0-1.13-.92-2.05-2.05-2.05s-2.05.92-2.05,2.05v7.73c0,1.13.92,2.05,2.05,2.05" style="fill:#fff;"/><path d="M25.54,79.87c0,1.82,1.47,3.29,3.29,3.29s3.29-1.47,3.29-3.29-1.47-3.29-3.29-3.29-3.29,1.47-3.29,3.29" style="fill:#fff;"/></g></svg>