<?xml version="1.0" encoding="UTF-8"?><svg id="Layer_2" xmlns="http://www.w3.org/2000/svg" viewBox="0 0 114.67 105.5"><g id="Layer_1-2"><path d="M112.38,41.28c-5.93,0-9.47-4.85-9.47-9.54,0-1.72.48-4.26,2.79-6.57.9-.9.9-2.35,0-3.24l-12.96-12.96c-.43-.43-1.01-.67-1.62-.67s-1.19.24-1.62.67c-2.31,2.31-4.85,2.79-6.57,2.79-4.69,0-9.54-3.54-9.54-9.47,0-1.27-1.03-2.29-2.29-2.29h-9.17c-1.27,0-2.29,1.03-2.29,2.29v14.06c0,1.16.86,2.13,2.01,2.28,17.16,2.13,30.1,16.8,30.1,34.12s-12.94,31.99-30.1,34.14c-1.15.14-2.01,1.12-2.01,2.28v14.04c0,1.27,1.03,2.29,2.29,2.29h9.17c1.27,0,2.29-1.03,2.29-2.29,0-5.93,4.85-9.47,9.54-9.47,1.72,0,4.26.48,6.57,2.79.9.9,2.35.9,3.24,0l12.96-12.96c.9-.9.9-2.35,0-3.24-2.31-2.31-2.79-4.84-2.79-6.57,0-4.69,3.54-9.54,9.47-9.54,1.27,0,2.29-1.03,2.29-2.29v-18.35c0-1.27-1.03-2.29-2.29-2.29M110.09,59.81c-7.33,1.16-11.77,7.78-11.77,13.95,0,2.91.92,5.7,2.64,8.06l-9.97,9.97c-2.36-1.72-5.16-2.64-8.06-2.64-6.17,0-12.79,4.44-13.95,11.76h-4.76v-9.77c18.44-3.29,32.11-19.46,32.11-38.39s-13.67-35.1-32.11-38.37V4.59h4.76c1.16,7.33,7.78,11.76,13.95,11.76,2.9,0,5.7-.92,8.06-2.64l9.97,9.97c-1.72,2.36-2.64,5.16-2.64,8.06,0,6.17,4.44,12.79,11.77,13.95v14.11Z" style="fill:#fff;"/><path d="M53.03,86.89c-17.16-2.15-30.1-16.83-30.1-34.14s12.94-31.99,30.1-34.12c1.15-.14,2.01-1.12,2.01-2.28V2.29c0-1.27-1.03-2.29-2.29-2.29h-9.17c-1.27,0-2.29,1.03-2.29,2.29,0,4.65-3.01,7.56-5.83,8.72-2.81,1.17-6.99,1.24-10.28-2.04-.9-.9-2.35-.9-3.24,0l-12.96,12.96c-.9.9-.9,2.35,0,3.24,2.31,2.31,2.79,4.84,2.79,6.57,0,4.69-3.54,9.54-9.47,9.54-1.27,0-2.29,1.03-2.29,2.29v18.35c0,1.27,1.03,2.29,2.29,2.29,5.93,0,9.47,4.85,9.47,9.54,0,1.72-.48,4.26-2.79,6.57-.43.43-.67,1.01-.67,1.62s.24,1.19.67,1.62l12.96,12.96c.9.9,2.35.9,3.24,0,2.31-2.31,4.86-2.79,6.59-2.79,4.68,0,9.52,3.54,9.52,9.47,0,1.27,1.03,2.29,2.29,2.29h9.17c1.27,0,2.29-1.03,2.29-2.29v-14.04c0-1.16-.86-2.13-2.01-2.28M50.46,100.91h-4.76c-1.12-7.41-7.63-11.76-13.93-11.76-2.92,0-5.72.92-8.08,2.64l-9.97-9.97c1.71-2.36,2.64-5.16,2.64-8.06,0-6.18-4.44-12.79-11.77-13.95v-14.11c7.33-1.16,11.77-7.78,11.77-13.95,0-2.9-.92-5.7-2.64-8.06l9.97-9.97c3.91,2.84,8.92,3.46,13.53,1.54,4.62-1.91,7.72-5.89,8.48-10.67h4.76v9.79c-18.44,3.27-32.11,19.42-32.11,38.37s13.67,35.1,32.11,38.39v9.77Z" style="fill:#fff;"/><path d="M87.15,52.75c0-12.7-8.05-24.01-20.03-28.15-1.19-.41-2.5.22-2.92,1.42-.41,1.2.22,2.5,1.42,2.92,10.13,3.5,16.94,13.07,16.94,23.82,0,13.91-11.32,25.23-25.23,25.23s-25.23-11.32-25.23-25.23c0-10.75,6.81-20.32,16.94-23.82,1.2-.41,1.83-1.72,1.42-2.92-.41-1.2-1.72-1.83-2.92-1.42-11.98,4.14-20.03,15.45-20.03,28.15,0,16.44,13.38,29.81,29.82,29.81s29.82-13.38,29.82-29.81" style="fill:#fff;"/><path d="M36.7,52.75c0,11.38,9.26,20.64,20.64,20.64s20.64-9.26,20.64-20.64-9.26-20.64-20.64-20.64-20.64,9.26-20.64,20.64M73.39,52.75c0,8.85-7.2,16.05-16.05,16.05s-16.05-7.2-16.05-16.05,7.2-16.05,16.05-16.05,16.05,7.2,16.05,16.05Z" style="fill:#fff;"/><path d="M52.08,51.13c-.9-.9-2.35-.9-3.24,0-.9.9-.9,2.35,0,3.24l4.59,4.59c.89.89,2.36.89,3.24,0l9.17-9.17c.9-.9.9-2.35,0-3.24-.9-.9-2.35-.9-3.24,0l-7.55,7.55-2.97-2.97" style="fill:#fff;"/></g></svg>