<?xml version="1.0" encoding="UTF-8"?><svg id="Layer_2" xmlns="http://www.w3.org/2000/svg" viewBox="0 0 33.66 33.66"><g id="Layer_1-2"><rect width="33.66" height="33.66" style="fill:#0076bd;"/><path d="M22.6,22.69c0,.54-.19,1.01-.58,1.4-.47.38-1.12.52-1.88.51-1.14,0-2.97.16-4.78-.2-.66-.13-1.59-.7-1.97-.97-1.41-.99-2.37-2.72-2.37-4.52v-7.91c.03-1.2.85-1.96,1.91-1.98.55,0,1.01.19,1.4.58.39.39.59.86.59,1.4v1.98h5.64c2.67,0,2.9,3.87,0,3.87h-5.66v2.05c.26,1.61,1.45,1.83,2.71,1.76,1.08.06,2.23.03,2.51.03,1.39-.18,2.43.49,2.49,1.98" style="fill:#fff; fill-rule:evenodd;"/></g></svg>